#N struct text float x float y text t;
#N struct key-rectangle float x float y float pitch float w float h
symbol fill-col float fill-opac symbol edge-col float edge-opac float
edge-width float round-x float round-y float rot-key float rot-board
float center-x float center-y;
#N canvas 93 0 1795 1130 10;
#X obj 267 34 inlet;
#X text 267 14 global params initiation;
#X obj 267 74 jik-keyboard-design-controler-A;
#X obj 267 335 jik-keyboard-design-controler-B;
#X obj 267 616 jik-keyboard-design-controler-B;
#X msg 212 240 recall \$1;
#X obj 54 190 list prepend store;
#X obj 33 250 list trim;
#X obj 33 220 list;
#X obj 65 81 bng 15 250 50 0 empty empty Store -8 -8 0 10 -262144 -1
-1;
#X obj 117 300 preset_hub jik-presets %hidden% %node% 2 3 75 %preset%
0 0 %preset% 1 0 %node% 2 3 74 %preset% 0 200 %preset% 1 200 %node%
2 3 76 %preset% 0 0 %preset% 1 0 %node% 2 3 77 %preset% 1 100 %preset%
0 100 %node% 2 3 78 %preset% 1 20 %preset% 0 20 %node% 2 3 62 %preset%
0 100 %preset% 1 100 %node% 2 3 63 %preset% 1 50 %preset% 0 50 %node%
2 3 64 %preset% 0 3 %preset% 1 3 %node% 2 3 65 %preset% 0 0 %preset%
1 0 %node% 2 3 66 %preset% 1 0 %preset% 0 0 %node% 2 3 67 %preset%
1 0 %preset% 0 0 %node% 2 3 68 %preset% 1 1 %preset% 0 1 %node% 2 3
69 %preset% 0 0 %preset% 1 0 %node% 2 3 70 %preset% 0 0 %preset% 1
0 %node% 2 3 71 %preset% 0 0 %preset% 1 0 %node% 2 3 72 %preset% 0
0 %preset% 1 0 %node% 2 3 73 %preset% 0 100 %preset% 1 100 %node% 2
4 67 %preset% 0 0 %preset% 1 0 %node% 2 4 68 %preset% 1 35 %preset%
0 1 %node% 2 4 69 %preset% 0 0 %preset% 1 0 %node% 2 4 70 %preset%
0 0 %preset% 1 0 %node% 2 4 71 %preset% 0 0 %preset% 1 0 %node% 2 4
72 %preset% 0 0 %preset% 1 0 %node% 2 4 73 %preset% 0 100 %preset%
1 100 %node% 2 4 74 %preset% 0 150 %preset% 1 150 %node% 2 4 75 %preset%
1 0 %preset% 0 0 %node% 2 4 76 %preset% 1 0 %preset% 0 0 %node% 2 4
77 %preset% 0 100 %preset% 1 100 %node% 2 4 78 %preset% 0 20 %preset%
1 20 %node% 2 3 60 %preset% 0 white %preset% 1 white %node% 2 3 61
%preset% 0 black %preset% 1 black %node% 2 4 65 %preset% 0 0 %preset%
1 0 %node% 2 4 66 %preset% 0 0 %preset% 1 0 %node% 2 4 63 %preset%
1 50 %preset% 0 50 %node% 2 4 64 %preset% 1 3 %preset% 0 5 %node% 2
4 60 %preset% 0 black %preset% 1 black %node% 2 4 61 %preset% 0 black
%preset% 1 black %node% 2 4 62 %preset% 0 100 %preset% 1 100 %node%
2 3 25 %preset% 0 2 0 12 \; 2 2 12 \; 2 4 12 \; 2 5 12 \; 2 7 12 \;
2 9 12 \; 2 11 12 \; 2 12 12 \; %preset% 1 2 0 12 \; 2 2 12 \; 2 4
12 \; 2 5 12 \; 2 7 12 \; 2 9 12 \; 2 11 12 \; 2 12 12 \; %node% 2
3 59 %preset% 0 0 %preset% 1 0 %node% 2 4 25 %preset% 0 2 1 12 \; 2
3 12 \; 2 6 12 \; 2 8 12 \; 2 10 12 \; %preset% 1 2 1 12 \; 2 3 12
\; 2 6 12 \; 2 8 12 \; 2 10 12 \; %node% 2 4 59 %preset% 0 0 %preset%
1 0 %node% 2 2 36 %preset% 0 0 %preset% 1 0 %node% 2 2 37 %preset%
0 0.1 %preset% 1 0.1 %node% 2 2 38 %preset% 0 0.8 %preset% 1 0.8 %node%
2 2 39 %preset% 0 -1 %preset% 1 1.5 %node% 2 2 40 %preset% 0 -1 %preset%
1 -2.5 %node% 2 2 41 %preset% 0 -1 %preset% 1 -2 %node% 2 2 42 %preset%
0 -1 %preset% 1 -1 %node% 2 2 43 %preset% 0 -1 %preset% 1 -1 %node%
2 2 89 %preset% 0 100 %preset% 1 100 %node% 2 2 90 %preset% 0 261.63
%preset% 1 261.63 %node% 2 2 91 %preset% 0 0 %preset% 1 0 %node% 2
2 92 %preset% 0 0 %preset% 1 0 %node% 2 2 93 %preset% 0 100 %preset%
1 100 %node% 2 2 94 %preset% 0 100 %preset% 1 100 %node% 2 2 95 %preset%
0 100 %preset% 1 100 %node% 2 2 96 %preset% 0 100 %preset% 1 100 %node%
2 2 97 %preset% 0 0 %preset% 1 0 %node% 2 2 98 %preset% 0 0 %preset%
1 0 %node% 2 21 25 %preset% 0 2 0 1 \; 3 2 1 2 -3 1 \; 5 1 1 2 -2 1
\; 3 -1 1 2 2 1 \; 3 1 1 2 -1 1 \; 5 1 1 3 -1 1 \; 5 1 1 3 1 1 2 -3
1 \; 2 1 1 \; %preset% 1 2 0 1 \; 3 2 1 2 -3 1 \; 5 1 1 2 -2 1 \; 3
1 1 2 -1 1 \; 5 1 1 3 1 1 2 -3 1 \; 2 1 1 \; %node% 2 21 59 %preset%
0 0 %preset% 1 0 %node% 2 21 60 %preset% 0 orange %preset% 1 orange
%node% 2 21 61 %preset% 0 darkblue %preset% 1 brown %node% 2 21 62
%preset% 0 100 %preset% 1 100 %node% 2 21 63 %preset% 0 50 %preset%
1 50 %node% 2 21 64 %preset% 0 5 %preset% 1 5 %node% 2 21 65 %node%
2 21 66 %node% 2 21 67 %node% 2 21 68 %preset% 0 1 %preset% 1 1 %node%
2 21 69 %node% 2 21 70 %node% 2 21 71 %node% 2 21 72 %node% 2 21 73
%preset% 0 80 %preset% 1 80 %node% 2 21 74 %preset% 0 150 %preset%
1 150 %node% 2 21 75 %preset% 0 0 %preset% 1 0 %node% 2 21 76 %preset%
0 0 %preset% 1 0 %node% 2 21 77 %preset% 0 80 %preset% 1 80 %node%
2 21 78 %preset% 0 0 %preset% 1 0 %node% 2 22 25 %preset% 0 2 1 1 3
1 1 5 -1 1 \; 2 3 1 5 -1 1 \; 3 2 1 5 -1 1 \; %preset% 1 11 1 1 2 -3
1 \; 13 1 1 2 -3 1 \; 7 1 1 2 -2 1 \; %node% 2 22 59 %preset% 0 0 %preset%
1 0 %node% 2 22 60 %preset% 0 darkblue %preset% 1 brown %node% 2 22
61 %preset% 0 orange %preset% 1 darkbrown %node% 2 22 62 %preset% 0
100 %preset% 1 100 %node% 2 22 63 %preset% 0 50 %preset% 1 50 %node%
2 22 64 %preset% 0 5 %preset% 1 5 %node% 2 22 65 %node% 2 22 66 %node%
2 22 67 %node% 2 22 68 %preset% 0 1 %preset% 1 1 %node% 2 22 69 %node%
2 22 70 %node% 2 22 71 %node% 2 22 72 %node% 2 22 73 %preset% 0 80
%preset% 1 80 %node% 2 22 74 %preset% 0 150 %preset% 1 150 %node% 2
22 75 %preset% 0 0 %preset% 1 0 %node% 2 22 76 %preset% 0 0 %preset%
1 0 %node% 2 22 77 %preset% 0 80 %preset% 1 80 %node% 2 22 78 %preset%
0 0 %preset% 1 0;
#X msg 785 296 harmony1;
#X obj 851 298 text define harmony1;
#X msg 831 348 2 0 12 \; 2 2 12 \; 2 4 12 \; 2 5 12 \; 2 7 12 \; 2
9 12 \; 2 11 12 \; 2 12 12 \;, f 38;
#X msg 846 616 2 1 12 \; 2 3 12 \; 2 6 12 \; 2 8 12 \; 2 10 12 \;,
f 35;
#X msg 786 586 harmony2;
#X obj 846 586 text define harmony2;
#X obj 116 34 inlet;
#X text 116 14 keyboard;
#X obj 115 81 vradio 15 0 1 6 empty empty Keyboard -16 -8 0 10 -262144
-1 -1 1;
#X obj 165 81 bng 15 250 50 0 empty empty Recall -8 -8 0 10 -262144
-1 -1;
#X obj 267 906 jik-keyboard-design-controler-B;
#X obj 267 1176 jik-keyboard-design-controler-B;
#X msg 786 876 harmony3;
#X obj 846 876 text define harmony3;
#X msg 846 906 2 0 1 \; 3 2 1 2 -3 1 \; 5 1 1 2 -2 1 \; 3 1 1 2 -1
1 \; 5 1 1 3 1 1 2 -3 1 \; 2 1 1 \;, f 35;
#X msg 786 1146 harmony4;
#X obj 846 1146 text define harmony4;
#X msg 846 1176 11 1 1 2 -3 1 \; 13 1 1 2 -3 1 \; 7 1 1 2 -2 1 \;,
f 35;
#X obj 229 220 s preset-recall-start;
#X obj 195 260 s preset-recall-finish;
#X obj 178 280 s params-changed;
#X obj 178 190 t b b f b;
#X obj 1067 64 jik-keyboard-design-key-rectangle;
#X obj 1067 34 jik-keyboard;
#X connect 0 0 2 0;
#X connect 2 0 3 0;
#X connect 2 1 3 1;
#X connect 3 0 4 0;
#X connect 3 1 4 1;
#X connect 3 2 13 0;
#X connect 4 0 21 0;
#X connect 4 1 21 1;
#X connect 4 2 14 0;
#X connect 5 0 10 0;
#X connect 6 0 8 1;
#X connect 7 0 10 0;
#X connect 8 0 7 0;
#X connect 9 0 8 0;
#X connect 11 0 3 2;
#X connect 15 0 4 2;
#X connect 17 0 19 0;
#X connect 19 0 6 0;
#X connect 19 0 32 0;
#X connect 20 0 19 0;
#X connect 21 0 22 0;
#X connect 21 1 22 1;
#X connect 21 2 25 0;
#X connect 22 2 28 0;
#X connect 23 0 21 2;
#X connect 26 0 22 2;
#X connect 32 0 31 0;
#X connect 32 1 30 0;
#X connect 32 2 5 0;
#X connect 32 3 29 0;
