#N struct text float x float y text t;
#N canvas 197 118 1586 893.031 10;
#X obj 1833 44 inlet;
#X dropdown 564 455 10 0 0 2 Shape - -, f 10;
#X msg 296 288 names rectangle ellipse diamond;
#X obj 347 598 select 0 1 2;
#X msg 347 668 key-rectangle;
#X obj 296 258 loadbang;
#X obj 353 44 inlet;
#X obj 483 1464 outlet;
#X obj 1818 1464 outlet;
#X text 526 1464 bang for next harmony;
#X text 1861 1464 gen params pass;
#X obj 1818 1407 list;
#X obj 369 698 symbol;
#X obj 1812 134 list;
#X obj 1833 104 spigot 1;
#X obj 483 1404 bang;
#X obj 2213 44 inlet;
#X text 1833 24 Global params;
#X text 353 24 Draw bang;
#X obj 991 1378 t b b;
#X scalar text 1200.38 251 \; \;;
#X obj 2423 404 list trim;
#X obj 2143 1464 outlet;
#X obj 2213 134 list;
#X obj 2213 104 text tolist;
#X obj 2061 104 preset_node jik-presets;
#X obj 2423 284 list split 1;
#X obj 2423 224 t l b;
#X msg 2609 254 set;
#X obj 2470 254 list;
#X text 2213 24 Harmony;
#X text 2189 1464 harmony message;
#X text 2093 224 harmony storage;
#X msg 2544 374 addsemi;
#X obj 2423 344 route float symbol;
#X obj 2423 374 list prepend add2;
#X obj 2609 444 s \$0-msgout;
#X obj 2143 1414 r \$0-msgout;
#X obj 2423 314 t b a;
#X symbolatom 564 485 12 0 0 2 Fill - -, f 12;
#X obj 761 486 nbx 5 14 1 500 0 0 empty empty Size\ x 0 -8 0 10 -262144
-1 -1 1 256 0;
#X obj 761 516 nbx 5 14 1 500 0 0 empty empty Size\ y 0 -8 0 10 -262144
-1 -1 1 256 0;
#X obj 821 486 nbx 5 14 -200 200 0 0 empty empty Shift\ x 0 -8 0 10
-262144 -1 -1 0 256 0;
#X obj 821 516 nbx 5 14 -200 200 0 0 empty empty Shift\ y 0 -8 0 10
-262144 -1 -1 0 256 0;
#X obj 881 486 nbx 5 14 0 100 0 0 empty empty Rounding\ x 0 -8 0 10
-262144 -1 -1 0 256 0;
#X obj 881 516 nbx 5 14 0 100 0 0 empty empty Rounding\ y 0 -8 0 10
-262144 -1 -1 0 256 0;
#X obj 644 486 nbx 4 14 0 100 0 0 empty empty Opacity 0 -8 0 10 -262144
-1 -1 0 256 0;
#X symbolatom 564 515 12 0 0 2 Edge - -, f 12;
#X obj 644 516 nbx 4 14 0 100 0 0 empty empty Opacity 0 -8 0 10 -262144
-1 -1 0 256 0;
#X obj 694 516 nbx 4 14 0 100 0 0 empty empty Width 0 -8 0 10 -262144
-1 -1 0 256 0;
#X obj 808 456 tgl 15 0 empty empty -3 0 -8 0 10 -262144 -1 -1 0 6
;
#X obj 824 456 tgl 15 0 empty empty -2 0 -8 0 10 -262144 -1 -1 0 1
;
#X obj 840 456 tgl 15 0 empty empty -1 0 -8 0 10 -262144 -1 -1 0 1
;
#X obj 856 456 tgl 15 0 empty empty \ 0 4 -8 0 10 -262144 -1 -1 0 1
;
#X obj 872 456 tgl 15 0 empty empty 1 4 -8 0 10 -262144 -1 -1 0 1;
#X obj 888 456 tgl 15 0 empty empty 2 4 -8 0 10 -262144 -1 -1 0 1;
#X obj 904 456 tgl 15 0 empty empty 3 4 -8 0 10 -262144 -1 -1 0 1;
#X obj 920 456 tgl 15 0 empty empty 4 4 -8 0 10 -262144 -1 -1 0 1;
#X text 761 455 Octaves;
#X obj 261 344 preset_node jik-presets;
#X obj 271 364 preset_node jik-presets;
#X obj 281 384 preset_node jik-presets;
#X obj 331 414 preset_node jik-presets;
#X obj 341 434 preset_node jik-presets;
#X obj 371 464 preset_node jik-presets;
#X obj 867 249 preset_node jik-presets;
#X obj 877 269 preset_node jik-presets;
#X obj 887 289 preset_node jik-presets;
#X obj 897 309 preset_node jik-presets;
#X obj 1017 249 preset_node jik-presets;
#X obj 1027 269 preset_node jik-presets;
#X obj 1037 289 preset_node jik-presets;
#X obj 1047 309 preset_node jik-presets;
#X obj 598 343 preset_node jik-presets;
#X obj 608 363 preset_node jik-presets;
#X obj 747 343 preset_node jik-presets;
#X obj 757 363 preset_node jik-presets;
#X obj 899 343 preset_node jik-presets;
#X obj 909 363 preset_node jik-presets;
#X obj 2213 74 t b s s;
#X obj 2294 104 text fromlist;
#X obj 2192 224 list;
#X text 1678 134 global params storage;
#X obj 2213 194 spigot 1;
#X obj 2213 164 t l l;
#X obj 1878 54 r \$0-close-doors;
#X obj 1076 134 s \$0-close-doors;
#X msg 1076 104 0;
#X obj 2278 144 r \$0-close-doors;
#X obj 931 105 s \$0-set-local-params;
#X obj 786 105 s \$0-set-global-params;
#X obj 1685 104 r \$0-set-global-params;
#X obj 642 106 s \$0-bang-harmony;
#X obj 2093 194 r \$0-bang-harmony;
#X obj 618 395 r \$0-set-local-params;
#X msg 570 1206 obj;
#X text 1411 1235 round-x;
#X text 1479 1235 round-y;
#X text 1333 1235 edge-width;
#X text 1266 1235 edge-opac;
#X text 1206 1235 edge-col;
#X text 1139 1235 fill-opac;
#X text 1069 1235 fill-col;
#X text 1009 1235 height;
#X text 945 1235 width;
#X text 879 1235 pitch;
#X text 809 1235 shape;
#X text 674 1235 --x--;
#X text 744 1235 --y--;
#X text 1733 664 widths;
#X text 1652 664 ref pitch;
#X text 1396 664 tone coords;
#X obj 1812 164 t l l;
#X text 1198 467 move x;
#X text 1257 467 move y;
#X text 810 936 size;
#X text 748 936 orig;
#X text 874 936 shift;
#X text 1075 936 zoom;
#X text 941 936 move;
#X obj 369 728 s \$0-shape;
#X obj 823 1196 r \$0-shape;
#X obj 891 1196 r \$0-pitch;
#X obj 1752 736 s \$0-pitch;
#X obj 2192 284 list split 1;
#X obj 2239 254 list;
#X obj 2192 314 t b a;
#X obj 2309 404 list append;
#X obj 2261 404 list;
#X obj 2345 374 t b f;
#X obj 2219 434 list;
#X obj 2219 344 route symbol float;
#X obj 2219 374 t b b b b;
#X obj 2219 464 t b l;
#X obj 2219 514 s \$0-draw-tone;
#X obj 570 1176 r \$0-draw-tone;
#X obj 497 106 s \$0-bang-outlets;
#X obj 991 1348 r \$0-bang-outlets;
#X obj 2308 164 r \$0-open-doors;
#X obj 1898 74 r \$0-open-doors;
#X obj 353 74 t b b b b b b, f 121;
#X obj 353 136 s \$0-open-doors;
#X obj 620 1286 list trim;
#X msg 370 648 key-ellipse;
#X obj 2246 494 s \$0-tone-coords;
#X obj 1436 576 r \$0-tone-coords;
#X msg 353 106 1;
#X obj 199 648 s params-changed;
#X obj 71 536 sel x;
#X obj 111 536 t s s;
#X obj 199 618 bang;
#X obj 71 556 sel x;
#X obj 111 556 t s s;
#X obj 105 516 change;
#X obj 155 536 change;
#X obj 155 556 change;
#X obj 195 556 change;
#X obj 185 486 change;
#X obj 245 536 change;
#X obj 245 556 change;
#X obj 225 486 change;
#X obj 295 536 change;
#X obj 295 556 change;
#X obj 265 486 change;
#X obj 345 536 change;
#X obj 345 556 change;
#X obj 65 486 change;
#X obj 105 486 change;
#X obj 145 486 change;
#X obj 305 486 change;
#X obj 345 486 change;
#X msg 393 628 key-diamond;
#X obj 620 1316 s pd-jik-keyboard.pd;
#X obj 959 1056 expr $f1 * $f2 * $f3 / 10000;
#X obj 1027 1146 expr $f1 * $f2 * $f3 / 10000;
#X obj 1231 1166 r \$0-edge-col;
#X obj 477 658 s \$0-fill-col;
#X obj 477 688 s \$0-edge-col;
#X obj 567 658 s \$0-fill-opac;
#X obj 567 688 s \$0-edge-opac;
#X obj 663 688 s \$0-edge-width;
#X obj 797 658 s \$0-size-x;
#X obj 797 688 s \$0-size-y;
#X obj 877 658 s \$0-shift-x;
#X obj 877 688 s \$0-shift-y;
#X obj 962 658 s \$0-round-x;
#X obj 962 688 s \$0-round-y;
#X obj 1163 1196 r \$0-fill-opac;
#X obj 1298 1186 r \$0-edge-opac;
#X obj 1366 1206 r \$0-edge-width;
#X obj 1435 1176 r \$0-round-x;
#X obj 1503 1196 r \$0-round-y;
#X obj 1095 1176 r \$0-fill-col;
#X obj 1437 686 jik-keyboard-design-key-params, f 53;
#X obj 1713 194 list split 10;
#X text 1572 664 stretch x;
#X text 1492 664 stretch y;
#X obj 1100 447 unpack f f f f f f f f f f, f 89;
#X text 1606 467 rot key;
#X text 1548 467 rot brd;
#X text 1429 467 strtch x;
#X text 1489 467 strtch y;
#X text 1371 467 scale y;
#X text 1313 467 scale x;
#X text 1130 467 ref pitch;
#X text 1091 467 zoom;
#X obj 1100 497 s \$0-zoom;
#X obj 1159 517 s \$0-ref-pitch;
#X obj 1218 497 s \$0-move-x;
#X obj 1277 517 s \$0-move-y;
#X obj 1336 497 s \$0-scale-x;
#X obj 1454 497 s \$0-stretch-x;
#X obj 1513 517 s \$0-stretch-y;
#X obj 1395 517 s \$0-scale-y;
#X obj 1572 497 s \$0-rotate-board;
#X obj 1631 517 s \$0-rotate-keys;
#X obj 1515 596 r \$0-stretch-x;
#X obj 1594 616 r \$0-stretch-y;
#X obj 1673 636 r \$0-ref-pitch;
#X text 948 1036 zoom;
#X text 1029 1036 scale;
#X text 1112 1036 size;
#X text 1018 1126 zoom;
#X text 1099 1126 scale;
#X text 1182 1126 size;
#X obj 585 588 / 100;
#X obj 585 618 / 100;
#X text 1419 707 orig X;
#X text 1577 708 orig Y;
#X text 1727 708 ref pitch;
#X obj 620 1256 pack s f f s f f f s f s f f f f f f f f, f 193;
#X text 1549 1235 rot-key;
#X text 1617 1235 rot-brd;
#X text 1683 1235 center-x;
#X text 1752 1235 center-y;
#X obj 133 856 nbx 5 17 0 500 0 1 empty empty Center\ x 0 -8 0 10 -262144
-1 -1 100 256 0;
#X obj 233 856 nbx 5 17 0 500 0 1 empty empty Center\ y 0 -8 0 10 -262144
-1 -1 200 256 0;
#X text 127 816 Display center calibration:;
#X obj 133 886 s \$0-center-x;
#X obj 233 886 s \$0-center-y;
#X obj 1707 1176 r \$0-center-x;
#X obj 1775 1196 r \$0-center-y;
#X text 1140 936 center;
#X text 741 826 size;
#X text 679 826 orig;
#X text 805 826 shift;
#X text 1006 826 zoom;
#X text 872 826 move;
#X text 1071 826 center;
#X obj 753 796 r \$0-size-x;
#X obj 820 776 r \$0-shift-x;
#X obj 887 796 r \$0-move-x;
#X obj 953 776 r \$0-scale-x;
#X text 939 826 scale;
#X text 1008 936 scale;
#X obj 1020 796 r \$0-zoom;
#X obj 1087 776 r \$0-center-x;
#X obj 1087 906 r \$0-zoom;
#X obj 821 906 r \$0-size-y;
#X obj 888 886 r \$0-shift-y;
#X obj 954 906 r \$0-move-y;
#X obj 1020 886 r \$0-scale-y;
#X obj 1154 886 r \$0-center-y;
#X obj 959 1006 r \$0-zoom;
#X obj 1027 1096 r \$0-zoom;
#X obj 1109 1096 r \$0-scale-y;
#X obj 1191 1096 r \$0-size-y;
#X obj 484 1331 print msg;
#X obj 1639 1196 r \$0-rotate-board;
#X obj 1558 1137 bondo 2;
#X obj 1521 1107 r \$0-rotate-keys;
#X obj 1629 1107 r \$0-rotate-board;
#X obj 1571 1167 -;
#X obj 1041 1006 r \$0-scale-x;
#X obj 1123 1006 r \$0-size-x;
#X obj 687 845 expr ( $f1 - ($f2/4) + $f3 + $f4 ) * $f5/100 * $f6/100
+ $f7, f 67;
#X obj 755 956 expr ( $f1 - ($f2/4) + $f3 + $f4 ) * $f5/100 * $f6/100
+ $f7, f 67;
#X connect 0 0 14 0;
#X connect 1 0 3 0;
#X connect 1 0 153 0;
#X connect 2 0 1 0;
#X connect 3 0 4 0;
#X connect 3 1 143 0;
#X connect 3 2 171 0;
#X connect 4 0 12 0;
#X connect 5 0 2 0;
#X connect 6 0 140 0;
#X connect 11 0 8 0;
#X connect 12 0 120 0;
#X connect 13 0 112 0;
#X connect 14 0 13 1;
#X connect 15 0 7 0;
#X connect 16 0 79 0;
#X connect 19 0 15 0;
#X connect 19 1 11 0;
#X connect 21 0 36 0;
#X connect 23 0 25 0;
#X connect 23 0 80 0;
#X connect 23 0 84 0;
#X connect 24 0 23 0;
#X connect 25 0 23 0;
#X connect 26 0 38 0;
#X connect 26 1 29 1;
#X connect 27 0 26 0;
#X connect 27 1 28 0;
#X connect 28 0 36 0;
#X connect 29 0 26 0;
#X connect 33 0 36 0;
#X connect 34 0 35 0;
#X connect 34 1 33 0;
#X connect 35 0 21 0;
#X connect 37 0 22 0;
#X connect 38 0 29 0;
#X connect 38 1 34 0;
#X connect 39 0 149 0;
#X connect 39 0 176 0;
#X connect 40 0 158 0;
#X connect 40 0 181 0;
#X connect 41 0 159 0;
#X connect 41 0 182 0;
#X connect 42 0 161 0;
#X connect 42 0 183 0;
#X connect 43 0 162 0;
#X connect 43 0 184 0;
#X connect 44 0 164 0;
#X connect 44 0 185 0;
#X connect 44 0 77 0;
#X connect 45 0 165 0;
#X connect 45 0 186 0;
#X connect 46 0 62 0;
#X connect 46 0 154 0;
#X connect 46 0 225 0;
#X connect 47 0 61 0;
#X connect 47 0 152 0;
#X connect 47 0 177 0;
#X connect 48 0 155 0;
#X connect 48 0 226 0;
#X connect 49 0 156 0;
#X connect 49 0 180 0;
#X connect 50 0 166 0;
#X connect 51 0 167 0;
#X connect 52 0 168 0;
#X connect 53 0 157 0;
#X connect 54 0 160 0;
#X connect 55 0 163 0;
#X connect 56 0 169 0;
#X connect 57 0 170 0;
#X connect 59 0 1 0;
#X connect 60 0 39 0;
#X connect 61 0 47 0;
#X connect 62 0 46 0;
#X connect 63 0 48 0;
#X connect 64 0 49 0;
#X connect 65 0 50 0;
#X connect 66 0 51 0;
#X connect 67 0 52 0;
#X connect 68 0 53 0;
#X connect 69 0 54 0;
#X connect 70 0 55 0;
#X connect 71 0 56 0;
#X connect 72 0 57 0;
#X connect 73 0 40 0;
#X connect 74 0 41 0;
#X connect 75 0 42 0;
#X connect 76 0 43 0;
#X connect 77 0 44 0;
#X connect 78 0 45 0;
#X connect 79 0 24 0;
#X connect 79 1 24 1;
#X connect 79 2 80 1;
#X connect 81 0 124 0;
#X connect 83 0 81 1;
#X connect 84 0 83 0;
#X connect 84 1 27 0;
#X connect 85 0 14 1;
#X connect 87 0 86 0;
#X connect 88 0 83 1;
#X connect 91 0 13 0;
#X connect 93 0 81 0;
#X connect 94 0 1 0;
#X connect 94 0 45 0;
#X connect 94 0 43 0;
#X connect 94 0 42 0;
#X connect 94 0 41 0;
#X connect 94 0 40 0;
#X connect 94 0 49 0;
#X connect 94 0 48 0;
#X connect 94 0 47 0;
#X connect 94 0 39 0;
#X connect 94 0 46 0;
#X connect 94 0 44 0;
#X connect 95 0 230 0;
#X connect 112 0 194 0;
#X connect 112 1 11 1;
#X connect 121 0 230 3;
#X connect 122 0 230 4;
#X connect 124 0 126 0;
#X connect 124 1 125 1;
#X connect 125 0 124 0;
#X connect 126 0 125 0;
#X connect 126 1 131 0;
#X connect 127 0 128 1;
#X connect 128 0 127 0;
#X connect 128 0 130 1;
#X connect 129 0 128 0;
#X connect 129 1 127 1;
#X connect 130 0 133 0;
#X connect 131 0 132 0;
#X connect 131 1 129 0;
#X connect 132 0 130 0;
#X connect 132 1 128 1;
#X connect 132 2 127 1;
#X connect 132 3 128 0;
#X connect 133 0 134 0;
#X connect 133 1 144 0;
#X connect 135 0 95 0;
#X connect 137 0 19 0;
#X connect 138 0 83 1;
#X connect 139 0 14 1;
#X connect 140 0 146 0;
#X connect 140 1 136 0;
#X connect 140 2 92 0;
#X connect 140 3 90 0;
#X connect 140 4 89 0;
#X connect 140 5 87 0;
#X connect 142 0 172 0;
#X connect 142 0 267 0;
#X connect 143 0 12 0;
#X connect 145 0 193 0;
#X connect 146 0 141 0;
#X connect 148 1 150 0;
#X connect 149 0 148 1;
#X connect 149 1 148 0;
#X connect 150 0 147 0;
#X connect 151 1 150 0;
#X connect 152 0 151 1;
#X connect 152 1 151 0;
#X connect 153 0 150 0;
#X connect 154 0 150 0;
#X connect 155 0 150 0;
#X connect 156 0 150 0;
#X connect 157 0 150 0;
#X connect 158 0 150 0;
#X connect 159 0 150 0;
#X connect 160 0 150 0;
#X connect 161 0 150 0;
#X connect 162 0 150 0;
#X connect 163 0 150 0;
#X connect 164 0 150 0;
#X connect 165 0 150 0;
#X connect 166 0 150 0;
#X connect 167 0 150 0;
#X connect 168 0 150 0;
#X connect 169 0 150 0;
#X connect 170 0 150 0;
#X connect 171 0 12 0;
#X connect 173 0 230 5;
#X connect 174 0 230 6;
#X connect 175 0 230 9;
#X connect 187 0 230 8;
#X connect 188 0 230 10;
#X connect 189 0 230 11;
#X connect 190 0 230 12;
#X connect 191 0 230 13;
#X connect 192 0 230 7;
#X connect 193 0 275 0;
#X connect 193 1 276 0;
#X connect 193 2 123 0;
#X connect 194 0 197 0;
#X connect 194 1 193 4;
#X connect 197 0 206 0;
#X connect 197 1 207 0;
#X connect 197 2 208 0;
#X connect 197 3 209 0;
#X connect 197 4 210 0;
#X connect 197 5 213 0;
#X connect 197 6 211 0;
#X connect 197 7 212 0;
#X connect 197 8 214 0;
#X connect 197 9 215 0;
#X connect 216 0 193 1;
#X connect 217 0 193 2;
#X connect 218 0 193 3;
#X connect 225 0 178 0;
#X connect 226 0 179 0;
#X connect 230 0 142 0;
#X connect 235 0 238 0;
#X connect 236 0 239 0;
#X connect 240 0 230 16;
#X connect 241 0 230 17;
#X connect 249 0 275 1;
#X connect 250 0 275 2;
#X connect 251 0 275 3;
#X connect 252 0 275 4;
#X connect 255 0 275 5;
#X connect 256 0 275 6;
#X connect 257 0 276 5;
#X connect 258 0 276 1;
#X connect 259 0 276 2;
#X connect 260 0 276 3;
#X connect 261 0 276 4;
#X connect 262 0 276 6;
#X connect 263 0 173 0;
#X connect 264 0 174 0;
#X connect 265 0 174 1;
#X connect 266 0 174 2;
#X connect 268 0 230 15;
#X connect 269 0 272 0;
#X connect 269 1 272 1;
#X connect 270 0 269 0;
#X connect 271 0 269 1;
#X connect 272 0 230 14;
#X connect 273 0 173 1;
#X connect 274 0 173 2;
#X connect 275 0 230 1;
#X connect 276 0 230 2;
#X coords 0 -1 1 1 488 130 2 508 428;
