#N canvas 85 -8 1811 1146.06 10;
#X obj 737 231 nbx 5 14 -1e+037 1e+037 0 0 empty empty 2 0 -8 0 10
-262113 -1 -1 0 256 0;
#X obj 807 231 nbx 5 14 -1e+037 1e+037 0 0 empty empty 3 0 -8 0 10
-262113 -1 -1 0 256 0;
#X obj 877 231 nbx 5 14 -1e+037 1e+037 0 0 empty empty 5 0 -8 0 10
-262113 -1 -1 0 256 0;
#X obj 947 231 nbx 5 14 -1e+037 1e+037 0 0 empty empty 7 0 -8 0 10
-262113 -1 -1 0 256 0;
#X obj 737 261 nbx 5 14 -1e+037 1e+037 0 0 empty empty 11 0 -8 0 10
-262113 -1 -1 0 256 0;
#X obj 807 261 nbx 5 14 -1e+037 1e+037 0 0 empty empty 13 0 -8 0 10
-262113 -1 -1 0 256 0;
#X obj 877 261 nbx 5 14 -1e+037 1e+037 0 0 empty empty 17 0 -8 0 10
-262113 -1 -1 0 256 0;
#X obj 947 261 nbx 5 14 -1e+037 1e+037 0 0 empty empty 19 0 -8 0 10
-262113 -1 -1 0 256 0;
#X obj 620 231 nbx 6 14 -200 200 0 0 empty empty Rotate\ board 0 -8
0 10 -262144 -1 -1 0 256 0;
#X obj 410 231 nbx 6 14 -500 500 0 0 empty empty Move\ x 0 -8 0 10
-262144 -1 -1 0 256 0;
#X obj 410 261 nbx 6 14 -500 500 0 0 empty empty Move\ y 0 -8 0 10
-262144 -1 -1 0 256 0;
#X obj 480 231 nbx 6 14 20 500 0 0 empty empty Scale\ x 0 -8 0 10 -262144
-1 -1 20 256 0;
#X obj 480 261 nbx 6 14 20 500 0 0 empty empty Scale\ y 0 -8 0 10 -262144
-1 -1 20 256 0;
#X obj 340 261 nbx 6 14 30 300 0 0 empty empty Ref\ pitch 0 -8 0 10
-262144 -1 -1 30 256 0;
#X msg 475 142 261.63;
#X obj 742 1228 outlet;
#X obj 177 50 inlet;
#X obj 340 231 nbx 6 14 20 500 0 0 empty empty Zoom 0 -8 0 10 -262144
-1 -1 20 256 0;
#X obj 339 397 +;
#X obj 339 427 +;
#X obj 742 1158 list;
#X obj 291 1032 spigot 1;
#X text 213 1032 not drawing?;
#X text 237 972 changed?;
#X obj 291 843 bng 15 250 50 0 empty empty empty 17 7 0 10 -262144
-1 -1;
#X text 201 842 draw keyboard!;
#X obj 504 782 t b b;
#X msg 531 942 1;
#X obj 605 782 t b b;
#X msg 632 1002 1;
#X msg 672 1002 0;
#X msg 572 942 0;
#X obj 306 1228 outlet;
#X obj 736 682 t b l;
#X text 306 1248 Bang for harmonies;
#X obj 545 741 r \$0-drawing-completed;
#X obj 1001 130 preset_node jik-presets;
#X obj 1151 130 preset_node jik-presets;
#X obj 1301 130 preset_node jik-presets;
#X obj 1451 130 preset_node jik-presets;
#X obj 1041 160 preset_node jik-presets;
#X obj 1191 160 preset_node jik-presets;
#X obj 1341 160 preset_node jik-presets;
#X obj 1491 160 preset_node jik-presets;
#X obj 157 1142 s \$0-drawing-completed;
#X obj 438 742 r params-changed;
#X text 177 30 Super global params;
#X text 742 1248 Global params;
#X obj 291 1102 t b b b b b b;
#X msg 321 1142 clear;
#X obj 321 1172 s pd-jik-keyboard.pd;
#X obj 550 231 nbx 6 14 20 500 0 0 empty empty Stretch\ x 0 -8 0 10
-262144 -1 -1 20 256 0;
#X obj 550 261 nbx 6 14 30 300 0 0 empty empty Stretch\ y 0 -8 0 10
-262144 -1 -1 30 256 0;
#X obj 620 261 nbx 6 14 -200 200 0 0 empty empty Rotate\ keys 0 -8
0 10 -262144 -1 -1 0 256 0;
#X msg 525 142 0;
#X msg 445 142 100;
#X obj 291 230 bng 14 250 50 0 empty empty Reset 0 -8 0 10 -262144
-1 -1;
#X obj 229 397 expr $f1*$f2/100;
#X obj 229 427 f;
#X obj 399 397 expr $f1*$f2/100;
#X obj 399 427 expr $f1*$f2/100;
#X obj 509 397 expr $f1*$f2/100;
#X obj 509 427 expr $f1*$f2/100;
#X obj 649 397 +;
#X obj 649 427 +;
#X obj 204 337 unpack f f f f f f f f f f;
#X obj 177 277 t b l;
#X obj 350 482 change;
#X obj 400 482 change;
#X obj 450 482 change;
#X obj 500 482 change;
#X obj 550 482 change;
#X obj 350 512 change;
#X obj 400 512 change;
#X obj 450 512 change;
#X obj 500 512 change;
#X obj 550 512 change;
#X obj 790 482 change;
#X obj 840 482 change;
#X obj 890 482 change;
#X obj 940 482 change;
#X obj 930 512 change;
#X obj 980 512 change;
#X obj 1030 512 change;
#X obj 1080 512 change;
#X obj 585 621 pack f f f f f f f f f f f f f f f f f f, f 44;
#X obj 585 591 bondo 18, f 44;
#X obj 567 306 loadbang;
#X msg 567 336 100;
#X obj 262 60 preset_node jik-presets;
#X obj 282 90 preset_node jik-presets;
#X obj 412 60 preset_node jik-presets;
#X obj 432 90 preset_node jik-presets;
#X obj 562 60 preset_node jik-presets;
#X obj 582 90 preset_node jik-presets;
#X obj 712 60 preset_node jik-presets;
#X obj 732 90 preset_node jik-presets;
#X obj 862 60 preset_node jik-presets;
#X obj 882 90 preset_node jik-presets;
#X obj 291 972 spigot 1;
#X obj 291 922 spigot 1;
#X obj 350 842 r preset-recall-start;
#X msg 350 892 0;
#X obj 380 862 r preset-recall-finish;
#X msg 380 892 1;
#X obj 653 712 s params-changed;
#X connect 0 0 77 0;
#X connect 1 0 78 0;
#X connect 2 0 79 0;
#X connect 3 0 80 0;
#X connect 4 0 81 0;
#X connect 5 0 82 0;
#X connect 6 0 83 0;
#X connect 7 0 84 0;
#X connect 8 0 63 0;
#X connect 9 0 18 0;
#X connect 10 0 19 0;
#X connect 11 0 59 0;
#X connect 12 0 60 0;
#X connect 13 0 58 0;
#X connect 14 0 13 0;
#X connect 16 0 66 0;
#X connect 17 0 57 0;
#X connect 18 0 68 0;
#X connect 19 0 73 0;
#X connect 20 0 15 0;
#X connect 21 0 48 0;
#X connect 24 0 100 0;
#X connect 26 0 24 0;
#X connect 26 1 27 0;
#X connect 27 0 99 1;
#X connect 28 0 24 0;
#X connect 28 1 29 0;
#X connect 29 0 21 1;
#X connect 30 0 21 1;
#X connect 31 0 99 1;
#X connect 33 0 105 0;
#X connect 33 1 20 1;
#X connect 35 0 28 0;
#X connect 36 0 0 0;
#X connect 37 0 1 0;
#X connect 38 0 2 0;
#X connect 39 0 3 0;
#X connect 40 0 4 0;
#X connect 41 0 5 0;
#X connect 42 0 6 0;
#X connect 43 0 7 0;
#X connect 45 0 26 0;
#X connect 48 0 44 0;
#X connect 48 1 32 0;
#X connect 48 2 49 0;
#X connect 48 3 31 0;
#X connect 48 4 30 0;
#X connect 48 5 20 0;
#X connect 49 0 50 0;
#X connect 51 0 61 0;
#X connect 52 0 62 0;
#X connect 53 0 64 0;
#X connect 54 0 9 0;
#X connect 54 0 10 0;
#X connect 54 0 8 0;
#X connect 54 0 53 0;
#X connect 55 0 17 0;
#X connect 55 0 11 0;
#X connect 55 0 12 0;
#X connect 55 0 51 0;
#X connect 55 0 52 0;
#X connect 56 0 55 0;
#X connect 56 0 14 0;
#X connect 56 0 54 0;
#X connect 57 0 67 0;
#X connect 58 0 72 0;
#X connect 59 0 69 0;
#X connect 60 0 74 0;
#X connect 61 0 70 0;
#X connect 62 0 75 0;
#X connect 63 0 71 0;
#X connect 64 0 76 0;
#X connect 65 0 57 1;
#X connect 65 1 58 1;
#X connect 65 2 18 1;
#X connect 65 3 19 1;
#X connect 65 4 59 1;
#X connect 65 5 60 1;
#X connect 65 6 61 1;
#X connect 65 7 62 1;
#X connect 65 8 63 1;
#X connect 65 9 64 1;
#X connect 66 0 17 0;
#X connect 66 0 53 0;
#X connect 66 0 52 0;
#X connect 66 0 51 0;
#X connect 66 0 13 0;
#X connect 66 0 12 0;
#X connect 66 0 11 0;
#X connect 66 0 10 0;
#X connect 66 0 9 0;
#X connect 66 0 8 0;
#X connect 66 1 65 0;
#X connect 67 0 86 0;
#X connect 68 0 86 2;
#X connect 69 0 86 4;
#X connect 70 0 86 6;
#X connect 71 0 86 8;
#X connect 72 0 86 1;
#X connect 73 0 86 3;
#X connect 74 0 86 5;
#X connect 75 0 86 7;
#X connect 76 0 86 9;
#X connect 77 0 86 10;
#X connect 78 0 86 11;
#X connect 79 0 86 12;
#X connect 80 0 86 13;
#X connect 81 0 86 14;
#X connect 82 0 86 15;
#X connect 83 0 86 16;
#X connect 84 0 86 17;
#X connect 85 0 33 0;
#X connect 86 0 85 0;
#X connect 86 1 85 1;
#X connect 86 2 85 2;
#X connect 86 3 85 3;
#X connect 86 4 85 4;
#X connect 86 5 85 5;
#X connect 86 6 85 6;
#X connect 86 7 85 7;
#X connect 86 8 85 8;
#X connect 86 9 85 9;
#X connect 86 10 85 10;
#X connect 86 11 85 11;
#X connect 86 12 85 12;
#X connect 86 13 85 13;
#X connect 86 14 85 14;
#X connect 86 15 85 15;
#X connect 86 16 85 16;
#X connect 86 17 85 17;
#X connect 87 0 88 0;
#X connect 88 0 57 1;
#X connect 88 0 59 1;
#X connect 88 0 62 1;
#X connect 88 0 61 1;
#X connect 88 0 60 1;
#X connect 89 0 17 0;
#X connect 90 0 13 0;
#X connect 91 0 9 0;
#X connect 92 0 10 0;
#X connect 93 0 11 0;
#X connect 94 0 12 0;
#X connect 95 0 51 0;
#X connect 96 0 52 0;
#X connect 97 0 8 0;
#X connect 98 0 53 0;
#X connect 99 0 21 0;
#X connect 100 0 99 0;
#X connect 101 0 102 0;
#X connect 102 0 100 1;
#X connect 103 0 104 0;
#X connect 104 0 100 1;
#X coords 0 -1 1 1 779 97 2 263 203;
