#N canvas 306 180 1368 770 10;
#X obj 36 67 inlet;
#X obj 122 70 inlet;
#X obj 821 297 *;
#X obj 820 346 * 10000;
#X obj 822 323 *;
#X obj 122 93 clip 0 1;
#X obj 881 302 *;
#X obj 880 351 * 10000;
#X obj 882 328 *;
#X obj 929 324 *;
#X obj 928 373 * 10000;
#X obj 930 350 *;
#N canvas 100 80 1108 856 adsr1 0;
#X obj -143 147 inlet;
#X msg 15 502 0;
#X obj 63 365 pack f f;
#X msg -148 457 1 1;
#X msg 64 391 set \$1 \$2;
#X obj 125 589 >=;
#X msg 216 752 1 1;
#X obj 157 632 moses 0.001;
#X obj 150 406 pack f f;
#X msg 151 436 set \$1 \$2;
#X msg 170 319 bang;
#X msg 313 372 set 0 \$1;
#X msg -135 357 bang;
#X msg -136 523 0 16;
#X obj -145 184 clip 0 1;
#X obj -113 211 moses 0.001;
#X obj 18 565 line 0 1;
#X obj -20 376 t f f;
#X obj 9 720 spigot;
#X obj 228 693 delay 0;
#X obj -49 150 inlet;
#X text -8 150 att;
#X obj 22 153 inlet;
#X text 63 153 dec;
#X obj 93 150 inlet;
#X text 134 152 sus;
#X obj 170 152 inlet;
#X text 211 152 rel;
#X obj -95 781 outlet;
#X obj -3 199 t b f;
#X connect 0 0 14 0;
#X connect 1 0 16 0;
#X connect 2 0 4 0;
#X connect 3 0 16 0;
#X connect 4 0 3 0;
#X connect 5 0 7 0;
#X connect 6 0 18 0;
#X connect 7 1 19 0;
#X connect 8 0 9 0;
#X connect 9 0 6 0;
#X connect 10 0 8 0;
#X connect 11 0 13 0;
#X connect 12 0 13 0;
#X connect 13 0 16 0;
#X connect 14 0 15 0;
#X connect 14 0 18 1;
#X connect 15 0 12 0;
#X connect 15 1 2 0;
#X connect 15 1 17 0;
#X connect 16 0 5 0;
#X connect 16 0 28 0;
#X connect 17 0 3 0;
#X connect 17 1 5 1;
#X connect 17 1 1 0;
#X connect 18 0 16 0;
#X connect 19 0 6 0;
#X connect 20 0 2 1;
#X connect 20 0 29 0;
#X connect 22 0 10 0;
#X connect 22 0 8 1;
#X connect 24 0 10 0;
#X connect 24 0 8 0;
#X connect 26 0 11 0;
#X connect 29 0 2 0;
#X connect 29 1 2 1;
#X coords 0 0 1 1 120 160 0;
#X restore 835 426 pd adsr1;
#X text 33 52 pitch;
#X obj 284 673 *~;
#X obj 271 800 outlet~;
#X text 125 57 gate;
#X obj 836 468 line~;
#X msg 837 445 \$1 1.6;
#X obj 412 373 *;
#X obj 454 414 *;
#X obj 166 394 *;
#X obj 445 438 *;
#X obj 521 174 *;
#X obj 505 225 * 10000;
#X obj 507 202 *;
#X obj 556 195 *;
#X obj 555 244 * 10000;
#X obj 557 221 *;
#X obj 606 206 *;
#X obj 605 255 * 10000;
#X obj 607 232 *;
#N canvas 102 79 1108 856 adsr1 0;
#X obj -143 147 inlet;
#X msg 15 502 0;
#X obj 63 365 pack f f;
#X msg -148 457 1 1;
#X msg 64 391 set \$1 \$2;
#X obj 125 589 >=;
#X msg 216 752 1 1;
#X obj 157 632 moses 0.001;
#X obj 150 406 pack f f;
#X msg 151 436 set \$1 \$2;
#X msg 170 319 bang;
#X msg 313 372 set 0 \$1;
#X msg -135 357 bang;
#X msg -136 523 0 16;
#X obj -145 184 clip 0 1;
#X obj -113 211 moses 0.001;
#X obj 18 565 line 0 1;
#X obj -20 376 t f f;
#X obj 9 720 spigot;
#X obj 228 693 delay 0;
#X obj -49 150 inlet;
#X text -8 150 att;
#X obj 22 153 inlet;
#X text 63 153 dec;
#X obj 93 150 inlet;
#X text 134 152 sus;
#X obj 170 152 inlet;
#X text 211 152 rel;
#X obj -95 781 outlet;
#X obj -3 199 t b f;
#X connect 0 0 14 0;
#X connect 1 0 16 0;
#X connect 2 0 4 0;
#X connect 3 0 16 0;
#X connect 4 0 3 0;
#X connect 5 0 7 0;
#X connect 6 0 18 0;
#X connect 7 1 19 0;
#X connect 8 0 9 0;
#X connect 9 0 6 0;
#X connect 10 0 8 0;
#X connect 11 0 13 0;
#X connect 12 0 13 0;
#X connect 13 0 16 0;
#X connect 14 0 15 0;
#X connect 14 0 18 1;
#X connect 15 0 12 0;
#X connect 15 1 2 0;
#X connect 15 1 17 0;
#X connect 16 0 5 0;
#X connect 16 0 28 0;
#X connect 17 0 3 0;
#X connect 17 1 5 1;
#X connect 17 1 1 0;
#X connect 18 0 16 0;
#X connect 19 0 6 0;
#X connect 20 0 2 1;
#X connect 20 0 29 0;
#X connect 22 0 10 0;
#X connect 22 0 8 1;
#X connect 24 0 10 0;
#X connect 24 0 8 0;
#X connect 26 0 11 0;
#X connect 29 0 2 0;
#X connect 29 1 2 1;
#X coords 0 0 1 1 120 160 0;
#X restore 538 343 pd adsr1;
#X obj 539 385 line~;
#X msg 540 362 \$1 1.6;
#X obj 358 555 *~;
#X obj 132 517 *~;
#X obj 342 430 *~;
#X obj 817 494 *~;
#X obj 584 528 *;
#X obj 270 773 +~;
#X obj 292 743 *~;
#X obj 230 746 *~;
#X obj 237 691 * -1;
#X obj 237 715 + 1;
#X obj 107 172 / 128;
#X obj 106 203 *;
#X text 75 14 2op fm voice;
#X obj 293 67 inlet;
#X text 289 44 fb1 0..0.5;
#X obj 357 68 inlet;
#X obj 242 72 inlet;
#X text 240 55 ratio;
#X obj 176 71 inlet;
#X text 175 52 keytrack;
#X obj 628 59 inlet;
#X obj 568 131 unpack f f f f;
#X obj 695 57 inlet;
#X text 696 43 balance;
#X obj 753 58 inlet;
#X text 752 45 fm;
#X text 626 44 adsr1 list;
#X text 364 48 waveparams1 list;
#X obj 814 56 inlet;
#X obj 880 56 inlet;
#X obj 989 55 inlet;
#X text 810 33 fb2 0..0.5;
#X text 887 36 waveparams2 list;
#X text 987 40 adsr2 list;
#X obj 970 143 unpack f f f f;
#X obj 381 521 +~;
#X obj 379 480 *~;
#X obj 71 92 ftom;
#X obj 204 430 jik-sound-voice-engine;
#X obj 203 626 jik-sound-voice-engine;
#X connect 0 0 72 0;
#X connect 0 0 21 0;
#X connect 0 0 74 0;
#X connect 1 0 5 0;
#X connect 2 0 4 1;
#X connect 2 0 4 0;
#X connect 3 0 12 1;
#X connect 4 0 3 0;
#X connect 5 0 12 0;
#X connect 5 0 32 0;
#X connect 6 0 8 1;
#X connect 6 0 8 0;
#X connect 7 0 12 2;
#X connect 8 0 7 0;
#X connect 9 0 11 1;
#X connect 9 0 11 0;
#X connect 10 0 12 4;
#X connect 11 0 10 0;
#X connect 12 0 18 0;
#X connect 14 0 41 0;
#X connect 17 0 38 0;
#X connect 17 0 38 1;
#X connect 18 0 17 0;
#X connect 19 0 73 3;
#X connect 20 0 22 1;
#X connect 20 0 22 0;
#X connect 21 0 73 0;
#X connect 22 0 70 1;
#X connect 22 0 71 1;
#X connect 23 0 25 1;
#X connect 23 0 25 0;
#X connect 24 0 32 1;
#X connect 25 0 24 0;
#X connect 26 0 28 1;
#X connect 26 0 28 0;
#X connect 27 0 32 2;
#X connect 28 0 27 0;
#X connect 29 0 31 1;
#X connect 29 0 31 0;
#X connect 30 0 32 4;
#X connect 31 0 30 0;
#X connect 32 0 34 0;
#X connect 33 0 37 0;
#X connect 33 0 37 1;
#X connect 34 0 33 0;
#X connect 36 0 42 0;
#X connect 36 0 35 0;
#X connect 37 0 36 1;
#X connect 38 0 14 1;
#X connect 39 0 74 3;
#X connect 40 0 15 0;
#X connect 41 0 40 1;
#X connect 42 0 40 0;
#X connect 43 0 44 0;
#X connect 44 0 42 1;
#X connect 45 0 46 0;
#X connect 46 0 71 0;
#X connect 48 0 19 1;
#X connect 48 0 19 0;
#X connect 50 0 73 2;
#X connect 51 0 21 1;
#X connect 53 0 46 1;
#X connect 55 0 56 0;
#X connect 56 0 23 1;
#X connect 56 0 23 0;
#X connect 56 1 26 1;
#X connect 56 1 26 0;
#X connect 56 2 32 3;
#X connect 56 3 29 1;
#X connect 56 3 29 0;
#X connect 57 0 41 1;
#X connect 57 0 43 0;
#X connect 59 0 20 1;
#X connect 59 0 20 0;
#X connect 63 0 39 1;
#X connect 63 0 39 0;
#X connect 64 0 74 2;
#X connect 65 0 69 0;
#X connect 69 0 2 1;
#X connect 69 0 2 0;
#X connect 69 1 6 1;
#X connect 69 1 6 0;
#X connect 69 2 12 3;
#X connect 69 3 9 1;
#X connect 69 3 9 0;
#X connect 70 0 35 1;
#X connect 71 0 70 0;
#X connect 72 0 45 0;
#X connect 73 0 36 0;
#X connect 74 0 14 0;
