#N struct text float x float y text t;
#N struct key-rectangle float x float y float pitch float w float h
symbol fill-col float fill-opac symbol edge-col float edge-opac float
edge-width float round-x float round-y float rot-key float rot-board
float center-x float center-y;
#N canvas 412 0 1156 1130 10;
#X obj 165 128 vradio 20 0 1 4 empty empty Keyboard -12 -8 0 10 -262144
-1 -1 0;
#X obj 626 165 nbx 6 14 -200 200 0 0 empty empty Rotate\ board 0 -8
0 10 -262144 -1 -1 0 256 0;
#X obj 356 165 nbx 6 14 -500 500 0 1 empty empty Move\ x 0 -8 0 10
-262144 -1 -1 0 256 0;
#X obj 356 195 nbx 6 14 -500 500 0 1 empty empty Move\ y 0 -8 0 10
-262144 -1 -1 0 256 0;
#X obj 446 165 nbx 6 14 20 500 0 1 empty empty Scale\ x 0 -8 0 10 -262144
-1 -1 100 256 0;
#X obj 446 195 nbx 6 14 20 500 0 1 empty empty Scale\ y 0 -8 0 10 -262144
-1 -1 100 256 0;
#X obj 266 195 nbx 6 14 30 300 0 1 empty empty Ref\ pitch 0 -8 0 10
-262144 -1 -1 261.63 256 0;
#X obj 266 165 nbx 6 14 20 500 0 0 empty empty Zoom 0 -8 0 10 -262144
-1 -1 100 256 0;
#X obj 536 165 nbx 6 14 20 500 0 1 empty empty Stretch\ x 0 -8 0 10
-262144 -1 -1 100 256 0;
#X obj 536 195 nbx 6 14 30 300 0 1 empty empty Stretch\ y 0 -8 0 10
-262144 -1 -1 100 256 0;
#X obj 626 195 nbx 6 14 -200 200 0 0 empty empty Rotate\ keys 0 -8
0 10 -262144 -1 -1 0 256 0;
#X obj 745 129 vradio 20 0 1 4 empty empty Sound -5 -8 0 10 -262144
-1 -1 0;
#X obj 801 129 tgl 20 0 empty empty ON/OFF -5 -9 0 10 -196159 -1 -1
0 1;
#X obj 250 165 bng 14 250 50 0 empty empty empty 17 7 0 10 -262144
-1 -1;
#X obj 250 195 bng 14 250 50 0 empty empty empty 17 7 0 10 -262144
-1 -1;
#X obj 340 165 bng 14 250 50 0 empty empty empty 17 7 0 10 -262144
-1 -1;
#X obj 340 195 bng 14 250 50 0 empty empty empty 17 7 0 10 -262144
-1 -1;
#X obj 430 165 bng 14 250 50 0 empty empty empty 17 7 0 10 -262144
-1 -1;
#X obj 430 195 bng 14 250 50 0 empty empty empty 17 7 0 10 -262144
-1 -1;
#X obj 520 165 bng 14 250 50 0 empty empty empty 17 7 0 10 -262144
-1 -1;
#X obj 520 195 bng 14 250 50 0 empty empty empty 17 7 0 10 -262144
-1 -1;
#X obj 610 165 bng 14 250 50 0 empty empty empty 17 7 0 10 -262144
-1 -1;
#X obj 610 195 bng 14 250 50 0 empty empty empty 17 7 0 10 -262144
-1 -1;
#X obj 220 165 bng 14 250 50 0 empty empty Reset -7 -8 0 10 -262144
-1 -1;
#X obj 675 40 nbx 6 14 -200 200 0 0 empty empty Rotate\ board 0 -8
0 10 -262144 -1 -1 0 256 0;
#X obj 405 40 nbx 6 14 -500 500 0 1 empty empty Move\ x 0 -8 0 10 -262144
-1 -1 0 256 0;
#X obj 405 70 nbx 6 14 -500 500 0 1 empty empty Move\ y 0 -8 0 10 -262144
-1 -1 0 256 0;
#X obj 495 40 nbx 6 14 20 500 0 1 empty empty Scale\ x 0 -8 0 10 -262144
-1 -1 100 256 0;
#X obj 495 70 nbx 6 14 20 500 0 1 empty empty Scale\ y 0 -8 0 10 -262144
-1 -1 100 256 0;
#X obj 315 70 nbx 6 14 30 300 0 1 empty empty Ref\ pitch 0 -8 0 10
-262144 -1 -1 261.63 256 0;
#X obj 315 40 nbx 6 14 20 500 0 1 empty empty Zoom 0 -8 0 10 -262144
-1 -1 100 256 0;
#X obj 585 40 nbx 6 14 20 500 0 1 empty empty Stretch\ x 0 -8 0 10
-262144 -1 -1 100 256 0;
#X obj 585 70 nbx 6 14 30 300 0 1 empty empty Stretch\ y 0 -8 0 10
-262144 -1 -1 100 256 0;
#X obj 675 70 nbx 6 14 -200 200 0 1 empty empty Rotate\ keys 0 -8 0
10 -262144 -1 -1 0 256 0;
#X obj 216 269 change;
#X obj 266 269 change;
#X obj 316 269 change;
#X obj 366 269 change;
#X obj 416 269 change;
#X obj 466 269 change;
#X obj 516 269 change;
#X obj 566 269 change;
#X obj 616 269 change;
#X obj 666 269 change;
#X obj 373 339 bondo 10, f 24;
#X obj 373 379 pack f f f f f f f f f f;
#X obj 262 405 jik-keyboard-design;
#X msg 801 271 \; pd dsp \$1;
#X obj 745 351 jik-sound-control;
#X msg 86 347 \; pd open \$1 \$2;
#X obj 117 286 getdir;
#X obj 86 324 pack s s;
#X obj 217 129 tgl 20 0 empty empty View -3 -9 0 10 -196159 -1 -1 0
1;
#X msg 49 391 \; pd-jik-keyboard.pd menuclose \;;
#X msg 90 253 jik-keyboard.pd;
#X obj 46 168 route 0 1;
#X obj 73 203 t b b b;
#X msg 914 342 1 1;
#X obj 893 299 t b b b b b b;
#X obj 909 377 s tone;
#X obj 885 258 route 0;
#X connect 0 0 46 0;
#X connect 1 0 42 0;
#X connect 2 0 36 0;
#X connect 3 0 37 0;
#X connect 4 0 38 0;
#X connect 5 0 39 0;
#X connect 6 0 35 0;
#X connect 7 0 34 0;
#X connect 8 0 40 0;
#X connect 9 0 41 0;
#X connect 10 0 43 0;
#X connect 11 0 48 0;
#X connect 12 0 47 0;
#X connect 12 0 60 0;
#X connect 13 0 30 0;
#X connect 14 0 29 0;
#X connect 15 0 25 0;
#X connect 16 0 26 0;
#X connect 17 0 27 0;
#X connect 18 0 28 0;
#X connect 19 0 31 0;
#X connect 20 0 32 0;
#X connect 21 0 24 0;
#X connect 22 0 33 0;
#X connect 23 0 30 0;
#X connect 23 0 33 0;
#X connect 23 0 32 0;
#X connect 23 0 31 0;
#X connect 23 0 29 0;
#X connect 23 0 28 0;
#X connect 23 0 27 0;
#X connect 23 0 26 0;
#X connect 23 0 25 0;
#X connect 23 0 24 0;
#X connect 24 0 1 0;
#X connect 25 0 2 0;
#X connect 26 0 3 0;
#X connect 27 0 4 0;
#X connect 28 0 5 0;
#X connect 29 0 6 0;
#X connect 30 0 7 0;
#X connect 31 0 8 0;
#X connect 32 0 9 0;
#X connect 33 0 10 0;
#X connect 34 0 44 0;
#X connect 35 0 44 1;
#X connect 36 0 44 2;
#X connect 37 0 44 3;
#X connect 38 0 44 4;
#X connect 39 0 44 5;
#X connect 40 0 44 6;
#X connect 41 0 44 7;
#X connect 42 0 44 8;
#X connect 43 0 44 9;
#X connect 44 0 45 0;
#X connect 44 1 45 1;
#X connect 44 2 45 2;
#X connect 44 3 45 3;
#X connect 44 4 45 4;
#X connect 44 5 45 5;
#X connect 44 6 45 6;
#X connect 44 7 45 7;
#X connect 44 8 45 8;
#X connect 44 9 45 9;
#X connect 45 0 46 1;
#X connect 50 0 51 1;
#X connect 51 0 49 0;
#X connect 52 0 55 0;
#X connect 54 0 51 0;
#X connect 55 0 53 0;
#X connect 55 1 56 0;
#X connect 56 0 0 0;
#X connect 56 1 54 0;
#X connect 56 2 50 0;
#X connect 57 0 59 0;
#X connect 58 0 57 0;
#X connect 58 1 57 0;
#X connect 58 2 57 0;
#X connect 58 3 57 0;
#X connect 58 4 57 0;
#X connect 58 5 57 0;
#X connect 60 0 58 0;
#X coords 0 -1 1 1 710 129 2 136 102;
