#N canvas 80 295 1312 731.969 10;
#X obj 150 30 inlet;
#X obj 746 30 inlet;
#X obj 544 30 inlet;
#X obj 899 30 inlet;
#X obj 250 140 list split 3;
#X obj 306 200 list split 1;
#X obj 918 180 list split 2;
#X obj 878 150 list;
#X obj 418 260 route;
#X obj 340 260 unpack f f;
#X obj 372 500 float;
#X obj 306 230 t b f;
#X obj 615 1105 outlet;
#X obj 917 150 list;
#X obj 250 110 list;
#X obj 372 380 + 0;
#X obj 419 380 float;
#X obj 372 410 t f f;
#X msg 406 350 0;
#X obj 345 440 t b b;
#X msg 345 470 0;
#X obj 180 690 unpack f f f;
#X obj 180 930 float;
#X obj 529 1105 outlet;
#X obj 227 810 float;
#X obj 180 840 t f f;
#X obj 153 870 t b b;
#X msg 153 900 0;
#X text 504 1105 x:;
#X text 588 1105 y:;
#X obj 180 720 expr pow($f1 \, ($f2/$f3));
#X obj 529 1034 *;
#X obj 731 1034 *;
#X obj 731 1104 outlet;
#X text 681 1104 pitch:;
#X obj 180 810 * 1;
#X msg 214 780 1;
#X obj 322 290 expr $f1 * $f2 / $f3;
#X obj 615 1034 float;
#X obj 180 570 list;
#X obj 372 530 t b f;
#X obj 180 630 list split 3;
#X obj 268 260 s \$0-wbng;
#X obj 832 120 r \$0-wbng;
#X obj 180 600 list;
#X obj 150 80 t b b l l;
#X obj 140 120 s \$0-yfin;
#X obj 295 410 r \$0-yfin;
#X obj 90 150 s \$0-coordfin;
#X obj 214 750 r \$0-coordfin;
#X obj 83 840 r \$0-coordfin;
#X obj 490 960 t f b f;
#X obj 406 320 r \$0-yfin;
#X text 544 10 Stretch x;
#X text 150 10 Coordinates;
#X text 746 10 Reference pitch;
#X text 899 10 Widths;
#X obj 657 30 inlet;
#X text 657 10 Stretch y;
#X obj 642 571 *;
#X obj 899 60 unpack f f f f f f f f, f 40;
#X obj 899 120 pack 2 f 3 f 5 f 7 f 11 f 13 f 17 f 19 f;
#X obj 899 90 t b f;
#X obj 379 990 expr log($f1) * 10;
#X connect 0 0 45 0;
#X connect 1 0 32 1;
#X connect 2 0 31 1;
#X connect 3 0 60 0;
#X connect 4 0 5 0;
#X connect 4 1 14 0;
#X connect 5 0 11 0;
#X connect 5 1 9 0;
#X connect 6 0 8 0;
#X connect 6 1 13 0;
#X connect 7 0 6 0;
#X connect 8 0 37 0;
#X connect 9 0 37 1;
#X connect 9 1 37 2;
#X connect 10 0 40 0;
#X connect 11 0 42 0;
#X connect 11 1 8 1;
#X connect 13 0 6 0;
#X connect 14 0 4 0;
#X connect 15 0 17 0;
#X connect 16 0 15 1;
#X connect 17 0 16 0;
#X connect 17 1 10 1;
#X connect 18 0 15 1;
#X connect 19 0 20 0;
#X connect 19 1 10 0;
#X connect 20 0 10 1;
#X connect 21 0 30 0;
#X connect 21 1 30 1;
#X connect 21 2 30 2;
#X connect 22 0 51 0;
#X connect 24 0 35 1;
#X connect 25 0 24 0;
#X connect 25 1 22 1;
#X connect 26 0 27 0;
#X connect 26 1 22 0;
#X connect 27 0 22 1;
#X connect 30 0 35 0;
#X connect 31 0 23 0;
#X connect 32 0 33 0;
#X connect 35 0 25 0;
#X connect 36 0 35 1;
#X connect 37 0 15 0;
#X connect 38 0 12 0;
#X connect 39 0 44 0;
#X connect 40 0 39 0;
#X connect 40 1 59 0;
#X connect 41 0 21 0;
#X connect 41 1 44 0;
#X connect 43 0 7 0;
#X connect 44 0 41 0;
#X connect 45 0 48 0;
#X connect 45 1 46 0;
#X connect 45 2 14 0;
#X connect 45 3 39 1;
#X connect 47 0 19 0;
#X connect 49 0 36 0;
#X connect 50 0 26 0;
#X connect 51 0 63 0;
#X connect 51 1 38 0;
#X connect 51 2 32 0;
#X connect 52 0 18 0;
#X connect 57 0 59 1;
#X connect 59 0 38 1;
#X connect 60 0 62 0;
#X connect 60 1 61 3;
#X connect 60 2 61 5;
#X connect 60 3 61 7;
#X connect 60 4 61 9;
#X connect 60 5 61 11;
#X connect 60 6 61 13;
#X connect 60 7 61 15;
#X connect 61 0 7 1;
#X connect 62 0 61 0;
#X connect 62 1 61 1;
#X connect 63 0 31 0;
